<svg xmlns="http://www.w3.org/2000/svg" width="128" height="128" fill="none" viewBox="0 0 128 128" id="approved-event"><path stroke="#000" stroke-linecap="round" stroke-width="6" d="M45 33V33C34.5066 33 26 41.5066 26 52L26 83C26 93.4934 34.5066 102 45 102V102L64 102 83 102V102C93.4934 102 102 93.4934 102 83L102 52C102 41.5066 93.4934 33 83 33V33L73.5 33 64 33 58.5 33M49 40V26M79 40V26"></path><path stroke="#000" stroke-linecap="round" stroke-width="6" d="M52 67.9582C54.6047 70.4561 59.9256 75.5588 60.3721 75.987C60.8186 76.4152 70.9767 66.1741 76 61"></path></svg>